# xmcd CD database file
#
# Track frame offsets:
#	150
#	12994
#	26583
#	40557
#	56840
#	68861
#
# Disc length: 1112 seconds
#
# Revision: 0
# Processed by: cddbd v1.5.2PL0 Copyright (c) Steve Scherf et al.
# Submitted via: CDex 1.70beta2
#
DISCID=47045606
DTITLE=Bobby Pinson - A Lil' Country
DYEAR=1900
DGENRE=Country
TTITLE0=Forgettin' About You
TTITLE1=I'll Keep It That Way
TTITLE2=A Lil' Country
TTITLE3=Where Dreams Go
TTITLE4=Lowerin' Standards Raisin' Cain
TTITLE5=Write That Wrong
EXTD=
EXTT0=
EXTT1=
EXTT2=
EXTT3=
EXTT4=
EXTT5=
PLAYORDER=
